<svg width="32" height="32" viewBox="0 0 32 32" fill="none" xmlns="http://www.w3.org/2000/svg">
<g filter="url(#filter0_iii_29_530)">
<path d="M13.0418 5.18695C13.7936 4.54624 14.1695 4.22589 14.5626 4.03803C15.4716 3.60353 16.5284 3.60353 17.4375 4.03803C17.8305 4.22589 18.2064 4.54624 18.9583 5.18695C19.2575 5.44195 19.4071 5.56945 19.5669 5.67655C19.9332 5.92205 20.3445 6.09244 20.7771 6.17784C20.9658 6.2151 21.1618 6.23074 21.5537 6.26201C22.5384 6.34059 23.0307 6.37988 23.4415 6.52496C24.3915 6.86053 25.1388 7.6078 25.4743 8.55784C25.6194 8.96859 25.6587 9.46093 25.7373 10.4456C25.7686 10.8375 25.7842 11.0335 25.8215 11.2222C25.9069 11.6548 26.0772 12.0661 26.3228 12.4324C26.4298 12.5922 26.5573 12.7418 26.8124 13.041C27.4531 13.7929 27.7734 14.1688 27.9613 14.5618C28.3958 15.4709 28.3958 16.5277 27.9613 17.4367C27.7734 17.8298 27.4531 18.2057 26.8124 18.9575C26.5573 19.2568 26.4298 19.4064 26.3228 19.5662C26.0772 19.9324 25.9069 20.3438 25.8215 20.7764C25.7842 20.9651 25.7686 21.1611 25.7373 21.553C25.6587 22.5376 25.6194 23.03 25.4743 23.4407C25.1388 24.3908 24.3915 25.138 23.4415 25.4736C23.0307 25.6187 22.5384 25.658 21.5537 25.7366C21.1618 25.7678 20.9658 25.7835 20.7771 25.8207C20.3445 25.9061 19.9332 26.0765 19.5669 26.322C19.4071 26.4291 19.2575 26.5566 18.9583 26.8116C18.2064 27.4523 17.8305 27.7727 17.4375 27.9605C16.5284 28.395 15.4716 28.395 14.5626 27.9605C14.1695 27.7727 13.7936 27.4523 13.0418 26.8116C12.7425 26.5566 12.5929 26.4291 12.4331 26.322C12.0669 26.0765 11.6555 25.9061 11.2229 25.8207C11.0342 25.7835 10.8382 25.7678 10.4463 25.7366C9.46166 25.658 8.96933 25.6187 8.55857 25.4736C7.60853 25.138 6.86126 24.3908 6.52569 23.4407C6.38061 23.03 6.34132 22.5376 6.26275 21.553C6.23147 21.1611 6.21583 20.9651 6.17858 20.7764C6.09317 20.3438 5.92278 19.9324 5.67728 19.5662C5.57018 19.4064 5.44268 19.2568 5.18768 18.9575C4.54697 18.2057 4.22662 17.8298 4.03876 17.4367C3.60427 16.5277 3.60427 15.4709 4.03876 14.5618C4.22662 14.1688 4.54697 13.7929 5.18768 13.041C5.44268 12.7418 5.57018 12.5922 5.67728 12.4324C5.92278 12.0661 6.09317 11.6548 6.17858 11.2222C6.21583 11.0335 6.23147 10.8375 6.26275 10.4456C6.34132 9.46093 6.38061 8.96859 6.52569 8.55784C6.86126 7.6078 7.60854 6.86053 8.55857 6.52496C8.96933 6.37988 9.46166 6.34059 10.4463 6.26201C10.8382 6.23074 11.0342 6.2151 11.2229 6.17784C11.6555 6.09244 12.0669 5.92205 12.4331 5.67655C12.5929 5.56945 12.7425 5.44195 13.0418 5.18695Z" fill="url(#paint0_linear_29_530)"/>
</g>
<path d="M11.3333 16.6667L14 19.3334L20.6666 12.6667" stroke="white" stroke-width="1.5" stroke-linecap="round" stroke-linejoin="round"/>
<defs>
<filter id="filter0_iii_29_530" x="2.71289" y="2.96216" width="26.5743" height="25.3242" filterUnits="userSpaceOnUse" color-interpolation-filters="sRGB">
<feFlood flood-opacity="0" result="BackgroundImageFix"/>
<feBlend mode="normal" in="SourceGraphic" in2="BackgroundImageFix" result="shape"/>
<feColorMatrix in="SourceAlpha" type="matrix" values="0 0 0 0 0 0 0 0 0 0 0 0 0 0 0 0 0 0 127 0" result="hardAlpha"/>
<feOffset dx="-1"/>
<feGaussianBlur stdDeviation="0.5"/>
<feComposite in2="hardAlpha" operator="arithmetic" k2="-1" k3="1"/>
<feColorMatrix type="matrix" values="0 0 0 0 1 0 0 0 0 0.886275 0 0 0 0 0.352941 0 0 0 1 0"/>
<feBlend mode="normal" in2="shape" result="effect1_innerShadow_29_530"/>
<feColorMatrix in="SourceAlpha" type="matrix" values="0 0 0 0 0 0 0 0 0 0 0 0 0 0 0 0 0 0 127 0" result="hardAlpha"/>
<feOffset dy="-0.75"/>
<feGaussianBlur stdDeviation="0.5"/>
<feComposite in2="hardAlpha" operator="arithmetic" k2="-1" k3="1"/>
<feColorMatrix type="matrix" values="0 0 0 0 1 0 0 0 0 0.384314 0 0 0 0 0.4 0 0 0 1 0"/>
<feBlend mode="normal" in2="effect1_innerShadow_29_530" result="effect2_innerShadow_29_530"/>
<feColorMatrix in="SourceAlpha" type="matrix" values="0 0 0 0 0 0 0 0 0 0 0 0 0 0 0 0 0 0 127 0" result="hardAlpha"/>
<feOffset dx="1"/>
<feGaussianBlur stdDeviation="0.5"/>
<feComposite in2="hardAlpha" operator="arithmetic" k2="-1" k3="1"/>
<feColorMatrix type="matrix" values="0 0 0 0 1 0 0 0 0 0.541176 0 0 0 0 0.290196 0 0 0 1 0"/>
<feBlend mode="normal" in2="effect2_innerShadow_29_530" result="effect3_innerShadow_29_530"/>
</filter>
<linearGradient id="paint0_linear_29_530" x1="16" y1="3.71216" x2="16" y2="28.2864" gradientUnits="userSpaceOnUse">
<stop stop-color="#FFD045"/>
<stop offset="1" stop-color="#FF8F5F"/>
</linearGradient>
</defs>
</svg>
