<svg width="87" height="106" viewBox="0 0 87 106" fill="none" xmlns="http://www.w3.org/2000/svg">
<g opacity="0.2" clip-path="url(#clip0_74_2304)">
<path d="M16.9929 91.8803C7.18735 85.2887 4.542 71.667 13.6838 62.398C20.4458 70.5308 24.7048 79.4175 16.9929 91.8803ZM51.6718 36.2908C45.2998 26.4377 48.3383 12.9685 60.3788 8.07922C63.3433 18.164 63.8289 27.9169 51.6718 36.2908ZM36.2785 70.1146C46.9264 75.2471 60.0092 70.7906 63.4655 58.2391C53.0413 56.4494 43.2157 57.2044 36.2785 70.1146ZM24.962 89.7153C35.6099 94.8478 48.6927 90.3914 52.149 77.8399C41.7248 76.0502 31.8992 76.8051 24.962 89.7153ZM47.5948 50.5141C58.2061 55.7101 71.3255 51.1902 74.7819 38.6387C64.3576 36.849 54.532 37.6039 47.5948 50.5141ZM28.2727 72.3431C18.5039 65.6879 15.8585 52.0662 24.9636 42.8607C31.7257 50.9935 35.9847 59.8802 28.2727 72.3431ZM39.589 52.7426C29.8202 46.0875 27.1382 32.5292 36.2799 23.2602C43.042 31.393 47.301 40.2797 39.589 52.7426Z" fill="white"/>
<mask id="mask0_74_2304" style="mask-type:alpha" maskUnits="userSpaceOnUse" x="8" y="8" width="67" height="84">
<path d="M16.9929 91.8803C7.18735 85.2887 4.542 71.667 13.6838 62.398C20.4458 70.5308 24.7048 79.4175 16.9929 91.8803ZM51.6718 36.2908C45.2998 26.4377 48.3383 12.9685 60.3788 8.07922C63.3433 18.164 63.8289 27.9169 51.6718 36.2908ZM36.2785 70.1146C46.9264 75.2471 60.0092 70.7906 63.4655 58.2391C53.0413 56.4494 43.2157 57.2044 36.2785 70.1146ZM24.962 89.7153C35.6099 94.8478 48.6927 90.3914 52.149 77.8399C41.7248 76.0502 31.8992 76.8051 24.962 89.7153ZM47.5948 50.5141C58.2061 55.7101 71.3255 51.1902 74.7819 38.6387C64.3576 36.849 54.532 37.6039 47.5948 50.5141ZM28.2727 72.3431C18.5039 65.6879 15.8585 52.0662 24.9636 42.8607C31.7257 50.9935 35.9847 59.8802 28.2727 72.3431ZM39.589 52.7426C29.8202 46.0875 27.1382 32.5292 36.2799 23.2602C43.042 31.393 47.301 40.2797 39.589 52.7426Z" fill="#DA251D"/>
</mask>
<g mask="url(#mask0_74_2304)">
<path d="M51.2476 -3.83008L65.104 4.16992L52.104 26.6866L40.7476 14.3565L51.2476 -3.83008Z" fill="white"/>
<path d="M59.6793 38.5657L52.7278 50.718L37.805 48.4532L42.2559 37.7439L59.6793 38.5657Z" fill="white"/>
</g>
</g>
<defs>
<clipPath id="clip0_74_2304">
<rect width="44.1984" height="95.7632" fill="white" transform="translate(47.8816) rotate(30)"/>
</clipPath>
</defs>
</svg>
