<svg width="42" height="42" viewBox="0 0 42 42" fill="none" xmlns="http://www.w3.org/2000/svg">
<rect width="42" height="42" rx="21" fill="#33AADE"/>
<path fill-rule="evenodd" clip-rule="evenodd" d="M12.0002 20.1875C17.1439 17.8542 20.5682 16.3038 22.2876 15.5516C27.1815 13.4179 28.2102 13.0495 28.8716 13.0342C29.0185 13.0342 29.3419 13.0649 29.5623 13.2491C29.7387 13.4026 29.7827 13.6021 29.8121 13.7556C29.8415 13.9092 29.8709 14.2315 29.8415 14.4771C29.577 17.3937 28.4307 24.4702 27.8428 27.7245C27.593 29.106 27.108 29.5665 26.6377 29.6126C25.609 29.7047 24.8301 28.9065 23.8454 28.2311C22.2876 27.1719 21.4206 26.5118 19.9068 25.468C18.158 24.2707 19.2896 23.6106 20.2889 22.5361C20.5535 22.2598 25.0652 17.9617 25.1534 17.5779C25.1681 17.5318 25.1681 17.3476 25.0652 17.2555C24.9624 17.1634 24.8154 17.1941 24.6978 17.2248C24.5362 17.2555 22.0672 18.9748 17.2615 22.3672C16.5561 22.8738 15.9241 23.1194 15.351 23.104C14.7191 23.0887 13.514 22.7356 12.6028 22.4286C11.5006 22.0602 10.6188 21.8607 10.6923 21.2159C10.7364 20.8782 11.1772 20.5405 12.0002 20.1875Z" fill="white"/>
</svg>
