<svg width="42" height="42" viewBox="0 0 42 42" fill="none" xmlns="http://www.w3.org/2000/svg">
<rect width="42" height="42" rx="12" fill="#26D044"/>
<path fill-rule="evenodd" clip-rule="evenodd" d="M28.8535 13.1369C26.7698 11.0607 23.9986 9.9168 21.0462 9.91553C14.9628 9.91553 10.0116 14.8428 10.0091 20.899C10.0084 22.8349 10.5165 24.7245 11.4824 26.3904L9.91666 32.0822L15.7675 30.5548C17.3796 31.4298 19.1946 31.8911 21.0418 31.8918H21.0463C27.1291 31.8918 32.0808 26.9639 32.0833 20.9076C32.0844 17.9728 30.9373 15.2131 28.8535 13.1369ZM21.0463 30.0367H21.0426C19.3966 30.0361 17.7821 29.5959 16.3737 28.7641L16.0386 28.5664L12.5666 29.4727L13.4934 26.1037L13.2752 25.7582C12.357 24.3047 11.8719 22.6247 11.8727 20.8995C11.8747 15.8659 15.9899 11.7707 21.0501 11.7707C23.5002 11.7715 25.8036 12.7223 27.5355 14.4481C29.2675 16.1738 30.2206 18.4676 30.2197 20.907C30.2177 25.9411 26.1025 30.0367 21.0463 30.0367ZM26.0782 23.199C25.8024 23.0617 24.4467 22.3977 24.1938 22.306C23.9411 22.2146 23.7572 22.1688 23.5733 22.4435C23.3895 22.7183 22.8609 23.3364 22.7 23.5197C22.5392 23.7027 22.3783 23.7258 22.1026 23.5883C21.8267 23.451 20.9382 23.1611 19.8848 22.226C19.065 21.4983 18.5116 20.5996 18.3507 20.3247C18.1898 20.0499 18.3335 19.9015 18.4717 19.7646C18.5957 19.6416 18.7474 19.444 18.8854 19.2837C19.0233 19.1235 19.0692 19.009 19.1611 18.8258C19.2531 18.6427 19.2071 18.4824 19.1381 18.3451C19.0692 18.2076 18.5176 16.8566 18.2878 16.3071C18.064 15.772 17.8366 15.8444 17.6674 15.836C17.5067 15.828 17.3227 15.8262 17.1388 15.8262C16.9549 15.8262 16.6562 15.8949 16.4034 16.1697C16.1507 16.4445 15.4382 17.1085 15.4382 18.4594C15.4382 19.8104 16.4263 21.1153 16.5643 21.2986C16.7021 21.4817 18.5089 24.2539 21.2753 25.4428C21.9331 25.7256 22.4469 25.8944 22.8474 26.021C23.5081 26.2299 24.1093 26.2003 24.5844 26.1297C25.1143 26.0509 26.216 25.4657 26.4458 24.8247C26.6756 24.1835 26.6756 23.6339 26.6067 23.5195C26.5378 23.4051 26.3539 23.3364 26.0782 23.199Z" fill="white"/>
</svg>
