<?xml version="1.0"?>
<svg xmlns="http://www.w3.org/2000/svg" xmlns:xlink="http://www.w3.org/1999/xlink" version="1.1" xml:space="preserve">
  <defs>

    <symbol id="loader" width="100%" height="100%" viewBox="22 22 44 44">
      <circle cx="44" cy="44" r="20.2" fill="none" stroke="currentColor" stroke-width="4"></circle>
    </symbol>

    <symbol id="burger" width="100%" height="100%" viewBox="0 0 24 24">
      <path d="M20 7L4 7" fill="transparent" stroke="currentColor" stroke-width="2" stroke-linecap="round" />
      <path d="M20 12L4 12" fill="transparent" stroke="currentColor" stroke-width="2" stroke-linecap="round" />
      <path d="M20 17L4 17" fill="transparent" stroke="currentColor" stroke-width="2" stroke-linecap="round" />
    </symbol>

    <symbol id="dots" width="100%" height="100%" viewBox="0 0 24 24">
      <path d="M5 6C5.55228 6 6 5.55228 6 5C6 4.44772 5.55228 4 5 4C4.44772 4 4 4.44772 4 5C4 5.55228 4.44772 6 5 6Z" fill="transparent" stroke="currentColor" stroke-width="2" stroke-linecap="round" stroke-linejoin="round" />
      <path d="M12 6C12.5523 6 13 5.55228 13 5C13 4.44772 12.5523 4 12 4C11.4477 4 11 4.44772 11 5C11 5.55228 11.4477 6 12 6Z" fill="transparent" stroke="currentColor" stroke-width="2" stroke-linecap="round" stroke-linejoin="round" />
      <path d="M19 6C19.5523 6 20 5.55228 20 5C20 4.44772 19.5523 4 19 4C18.4477 4 18 4.44772 18 5C18 5.55228 18.4477 6 19 6Z" fill="transparent" stroke="currentColor" stroke-width="2" stroke-linecap="round" stroke-linejoin="round" />
      <path d="M5 13C5.55228 13 6 12.5523 6 12C6 11.4477 5.55228 11 5 11C4.44772 11 4 11.4477 4 12C4 12.5523 4.44772 13 5 13Z" fill="transparent" stroke="currentColor" stroke-width="2" stroke-linecap="round" stroke-linejoin="round" />
      <path d="M12 13C12.5523 13 13 12.5523 13 12C13 11.4477 12.5523 11 12 11C11.4477 11 11 11.4477 11 12C11 12.5523 11.4477 13 12 13Z" fill="transparent" stroke="currentColor" stroke-width="2" stroke-linecap="round" stroke-linejoin="round" />
      <path d="M19 13C19.5523 13 20 12.5523 20 12C20 11.4477 19.5523 11 19 11C18.4477 11 18 11.4477 18 12C18 12.5523 18.4477 13 19 13Z" fill="transparent" stroke="currentColor" stroke-width="2" stroke-linecap="round" stroke-linejoin="round" />
      <path d="M5 20C5.55228 20 6 19.5523 6 19C6 18.4477 5.55228 18 5 18C4.44772 18 4 18.4477 4 19C4 19.5523 4.44772 20 5 20Z" fill="transparent" stroke="currentColor" stroke-width="2" stroke-linecap="round" stroke-linejoin="round" />
      <path d="M12 20C12.5523 20 13 19.5523 13 19C13 18.4477 12.5523 18 12 18C11.4477 18 11 18.4477 11 19C11 19.5523 11.4477 20 12 20Z" fill="transparent" stroke="currentColor" stroke-width="2" stroke-linecap="round" stroke-linejoin="round" />
      <path d="M19 20C19.5523 20 20 19.5523 20 19C20 18.4477 19.5523 18 19 18C18.4477 18 18 18.4477 18 19C18 19.5523 18.4477 20 19 20Z" fill="transparent" stroke="currentColor" stroke-width="2" stroke-linecap="round" stroke-linejoin="round" />
    </symbol>

    <symbol id="close" width="100%" height="100%" viewBox="0 0 22 22">
      <path d="M21 1.00008L1.00008 21M1 1L20.9999 20.9999" fill="transparent" stroke="currentColor" stroke-width="1.5" stroke-linecap="round" />
    </symbol>

    <symbol id="success" width="100%" height="100%" viewBox="0 0 68 68">
      <path fill-rule="evenodd" clip-rule="evenodd" d="M34 68C52.7777 68 68 52.7777 68 34C68 15.2223 52.7777 0 34 0C15.2223 0 0 15.2223 0 34C0 52.7777 15.2223 68 34 68ZM49.7552 28.5052C51.4149 26.8455 51.4149 24.1545 49.7552 22.4948C48.0955 20.8351 45.4045 20.8351 43.7448 22.4948L29.75 36.4896L24.2552 30.9948C22.5955 29.3351 19.9045 29.3351 18.2448 30.9948C16.5851 32.6545 16.5851 35.3455 18.2448 37.0052L26.7448 45.5052C28.4045 47.1649 31.0955 47.1649 32.7552 45.5052L49.7552 28.5052Z" fill="currentColor" />
    </symbol>

    <symbol id="arrow-left" width="100%" height="100%" viewBox="0 0 11 18">
      <path d="M3.76777 9L9.88388 2.88388C10.372 2.39573 10.372 1.60427 9.88388 1.11612C9.39573 0.627961 8.60427 0.627961 8.11612 1.11612L1.11612 8.11612C0.62796 8.60427 0.62796 9.39573 1.11612 9.88388L8.11612 16.8839C8.60427 17.372 9.39573 17.372 9.88388 16.8839C10.372 16.3957 10.372 15.6043 9.88388 15.1161L3.76777 9Z" fill="currentColor" />
    </symbol>

    <symbol id="arrow-right" width="100%" height="100%" viewBox="0 0 11 18">
      <path d="M7.23223 9L1.11612 2.88388C0.627961 2.39573 0.627961 1.60427 1.11612 1.11612C1.60427 0.627961 2.39573 0.627961 2.88388 1.11612L9.88388 8.11612C10.372 8.60427 10.372 9.39573 9.88388 9.88388L2.88388 16.8839C2.39573 17.372 1.60427 17.372 1.11612 16.8839C0.627961 16.3957 0.627961 15.6043 1.11612 15.1161L7.23223 9Z" fill="currentColor" />
    </symbol>

    <symbol id="mobile" width="100%" height="100%" viewBox="0 0 12 20">
      <path d="M9.64708 0H2.35292C1.05882 0 0 1.09091 0 2.42424V17.5758C0 18.9091 1.05882 20 2.35292 20H9.64708C10.9412 20 12 18.9091 12 17.5758V2.42424C12 1.09091 10.9412 0 9.64708 0ZM6.00007 17.2121C5.52949 17.2121 5.05884 16.8485 5.05884 16.2424C5.05884 15.7576 5.41184 15.2727 6.00007 15.2727C6.47066 15.2727 6.94116 15.6364 6.94116 16.2424C6.82351 16.8485 6.47066 17.2121 6.00007 17.2121ZM7.52939 4.48483H4.58823C4.11765 4.48483 3.64715 4.1212 3.64715 3.51514C3.64715 3.0303 4 2.54546 4.58823 2.54546H7.52939C7.99997 2.54546 8.47061 2.90908 8.47061 3.51514C8.35297 3.99999 7.99997 4.48483 7.52939 4.48483Z" fill="currentColor" />
    </symbol>

    <symbol id="geo" width="100%" height="100%" viewBox="0 0 16 19">
      <path fill-rule="evenodd" clip-rule="evenodd" d="M8.39512 17.9088C10.007 17.0906 16 13.6623 16 7.91877C16 3.54535 12.4183 0 8 0C3.58172 0 0 3.54535 0 7.91877C0 13.6623 5.99301 17.0906 7.60488 17.9088C7.85653 18.0365 8.14347 18.0365 8.39512 17.9088ZM8 11.3136C9.89355 11.3136 11.4286 9.79393 11.4286 7.91933C11.4286 6.04473 9.89355 4.52507 8 4.52507C6.10645 4.52507 4.57143 6.04473 4.57143 7.91933C4.57143 9.79393 6.10645 11.3136 8 11.3136Z" fill="currentColor" />
    </symbol>

    <symbol id="email" width="100%" height="100%" viewBox="0 0 20 16">
      <path fill-rule="evenodd" clip-rule="evenodd" d="M1.90725 1.74045C0.833313 2.81439 0.833313 4.54287 0.833313 7.99984C0.833313 11.4568 0.833313 13.1853 1.90725 14.2592C2.9812 15.3332 4.70968 15.3332 8.16665 15.3332H11.8333C15.2903 15.3332 17.0188 15.3332 18.0927 14.2592C19.1666 13.1853 19.1666 11.4568 19.1666 7.99984C19.1666 4.54287 19.1666 2.81439 18.0927 1.74045C17.0188 0.666504 15.2903 0.666504 11.8333 0.666504H8.16665C4.70968 0.666504 2.9812 0.666504 1.90725 1.74045ZM16.0281 3.89304C16.2712 4.18473 16.2318 4.61825 15.9401 4.86132L13.9267 6.53919C13.1142 7.21629 12.4556 7.7651 11.8744 8.13892C11.2689 8.52832 10.6793 8.77431 9.99998 8.77431C9.32066 8.77431 8.73101 8.52832 8.12556 8.13892C7.54434 7.7651 6.8858 7.2163 6.07331 6.5392L4.05985 4.86132C3.76816 4.61825 3.72875 4.18473 3.97183 3.89304C4.2149 3.60135 4.64842 3.56194 4.94011 3.80502L6.91909 5.45417C7.77431 6.16685 8.36807 6.66005 8.86935 6.98245C9.35459 7.29455 9.68366 7.39931 9.99998 7.39931C10.3163 7.39931 10.6454 7.29455 11.1306 6.98245C11.6319 6.66005 12.2257 6.16685 13.0809 5.45417L15.0599 3.80502C15.3515 3.56194 15.7851 3.60135 16.0281 3.89304Z" fill="currentColor" />
    </symbol>

    <symbol id="play-circle" width="100%" height="100%" viewBox="0 0 25 24">
      <path fill-rule="evenodd" clip-rule="evenodd" d="M12.25 22C17.7728 22 22.25 17.5228 22.25 12C22.25 6.47715 17.7728 2 12.25 2C6.72715 2 2.25 6.47715 2.25 12C2.25 17.5228 6.72715 22 12.25 22ZM10.9435 15.8458L15.6637 13.059C16.4454 12.5974 16.4454 11.4026 15.6637 10.941L10.9435 8.15419C10.1837 7.70561 9.25 8.28947 9.25 9.21316V14.7868C9.25 15.7105 10.1837 16.2944 10.9435 15.8458Z" fill="currentColor" />
    </symbol>

    <symbol id="play" width="100%" height="100%" viewBox="0 0 33 38">
      <path d="M29.646 23.8537L8.01183 36.6267C4.5295 38.6827 0.25 36.0067 0.25 31.7731V6.22706C0.250002 1.9935 4.5295 -0.682542 8.01183 1.37345L29.646 14.1465C33.2291 16.2619 33.2291 21.7382 29.646 23.8537Z" fill="currentColor" />
    </symbol>

    <symbol id="spedometer" width="100%" height="100%" viewBox="0 0 20 20">
      <path d="M18.3334 9.99996C18.3334 14.6023 14.6024 18.3333 10 18.3333C5.39765 18.3333 1.66669 14.6023 1.66669 9.99996C1.66669 5.39759 5.39765 1.66663 10 1.66663C14.6024 1.66663 18.3334 5.39759 18.3334 9.99996Z" fill="transparent" stroke="currentColor" stroke-width="1.5" />
      <path d="M15.8333 15.8334L14.5833 14.5834" fill="transparent" stroke="currentColor" stroke-width="1.5" stroke-linecap="round" />
      <path d="M15.8333 4.16663L14.5833 5.41663" fill="transparent" stroke="currentColor" stroke-width="1.5" stroke-linecap="round" />
      <path d="M4.16669 15.8334L5.41669 14.5834" fill="transparent" stroke="currentColor" stroke-width="1.5" stroke-linecap="round" />
      <path d="M4.16669 4.16663L5.41669 5.41663" fill="transparent" stroke="currentColor" stroke-width="1.5" stroke-linecap="round" />
      <path d="M1.66669 10H3.33335" fill="transparent" stroke="currentColor" stroke-width="1.5" stroke-linecap="round" />
      <path d="M16.6665 10L18.3332 10" fill="transparent" stroke="currentColor" stroke-width="1.5" stroke-linecap="round" />
      <path d="M10 3.33355L10 1.66689" fill="transparent" stroke="currentColor" stroke-width="1.5" stroke-linecap="round" />
      <path d="M8.43438 11.9699C7.45807 10.9936 7.45807 9.41069 8.43438 8.43438C9.41069 7.45807 10.9936 7.45807 11.9699 8.43438C12.3413 8.80576 12.6007 9.57669 12.7795 10.3895C13.0469 11.6049 13.1806 12.2126 12.6966 12.6966C12.2126 13.1806 11.6049 13.0469 10.3895 12.7795C9.57669 12.6007 8.80576 12.3413 8.43438 11.9699Z" fill="transparent" stroke="currentColor" stroke-width="1.5" />
    </symbol>

    <symbol id="max-min" width="100%" height="100%" viewBox="0 0 20 20">
      <path d="M14.1666 5.83337H11.6666M14.1666 5.83337V8.33337M14.1666 5.83337L11.25 8.75004M5.83331 14.1667H8.33331M5.83331 14.1667V11.6667M5.83331 14.1667L8.74998 11.25" fill="transparent" stroke="currentColor" stroke-width="1.5" stroke-linecap="round" stroke-linejoin="round" />
      <path d="M5.83335 5.83337H8.33335M5.83335 5.83337V8.33337M5.83335 5.83337L8.75002 8.75004M14.1667 14.1667H11.6667M14.1667 14.1667V11.6667M14.1667 14.1667L11.25 11.25" fill="transparent" stroke="currentColor" stroke-width="1.5" stroke-linecap="round" stroke-linejoin="round" />
      <path d="M1.66669 9.99996C1.66669 6.07159 1.66669 4.1074 2.88708 2.88701C4.10746 1.66663 6.07165 1.66663 10 1.66663C13.9284 1.66663 15.8926 1.66663 17.113 2.88701C18.3334 4.1074 18.3334 6.07159 18.3334 9.99996C18.3334 13.9283 18.3334 15.8925 17.113 17.1129C15.8926 18.3333 13.9284 18.3333 10 18.3333C6.07165 18.3333 4.10746 18.3333 2.88708 17.1129C1.66669 15.8925 1.66669 13.9283 1.66669 9.99996Z" fill="transparent" stroke="currentColor" stroke-width="1.5" />
    </symbol>

    <symbol id="sort" width="100%" height="100%" viewBox="0 0 20 20">
      <path d="M15 6.66671L5 6.66671M5 6.66671L8.4375 3.33337M5 6.66671L8.4375 10" fill="transparent" stroke="currentColor" stroke-width="1.5" stroke-linecap="round" stroke-linejoin="round" />
      <path d="M5 13.3333L15 13.3333M15 13.3333L11.5625 10M15 13.3333L11.5625 16.6667" fill="transparent" stroke="currentColor" stroke-width="1.5" stroke-linecap="round" stroke-linejoin="round" />
    </symbol>

    <symbol id="widget" width="100%" height="100%" viewBox="0 0 20 20">
      <path d="M11.25 12.9166C11.25 11.3453 11.25 10.5596 11.7382 10.0715C12.2263 9.58331 13.012 9.58331 14.5833 9.58331C16.1547 9.58331 16.9404 9.58331 17.4285 10.0715C17.9167 10.5596 17.9167 11.3453 17.9167 12.9166V14.5833C17.9167 16.1547 17.9167 16.9403 17.4285 17.4285C16.9404 17.9166 16.1547 17.9166 14.5833 17.9166C13.012 17.9166 12.2263 17.9166 11.7382 17.4285C11.25 16.9403 11.25 16.1547 11.25 14.5833V12.9166Z" fill="transparent" stroke="currentColor" stroke-width="1.5" />
      <path d="M1.66669 7.08331C1.66669 8.65466 1.66669 9.44034 2.15484 9.92849C2.643 10.4166 3.42867 10.4166 5.00002 10.4166C6.57137 10.4166 7.35704 10.4166 7.8452 9.92849C8.33335 9.44034 8.33335 8.65466 8.33335 7.08331V5.41665C8.33335 3.8453 8.33335 3.05962 7.8452 2.57147C7.35704 2.08331 6.57137 2.08331 5.00002 2.08331C3.42867 2.08331 2.643 2.08331 2.15484 2.57147C1.66669 3.05962 1.66669 3.8453 1.66669 5.41665V7.08331Z" fill="transparent" stroke="currentColor" stroke-width="1.5" />
      <path d="M11.25 4.58331C11.25 3.80674 11.25 3.41846 11.3769 3.11217C11.546 2.70379 11.8705 2.37934 12.2789 2.21018C12.5851 2.08331 12.9734 2.08331 13.75 2.08331H15.4167C16.1932 2.08331 16.5815 2.08331 16.8878 2.21018C17.2962 2.37934 17.6206 2.70379 17.7898 3.11217C17.9167 3.41846 17.9167 3.80674 17.9167 4.58331C17.9167 5.35988 17.9167 5.74817 17.7898 6.05445C17.6206 6.46283 17.2962 6.78729 16.8878 6.95645C16.5815 7.08331 16.1932 7.08331 15.4167 7.08331H13.75C12.9734 7.08331 12.5851 7.08331 12.2789 6.95645C11.8705 6.78729 11.546 6.46283 11.3769 6.05445C11.25 5.74817 11.25 5.35988 11.25 4.58331Z" fill="transparent" stroke="currentColor" stroke-width="1.5" />
      <path d="M1.66669 15.4167C1.66669 16.1933 1.66669 16.5815 1.79355 16.8878C1.96271 17.2962 2.28717 17.6207 2.69555 17.7898C3.00183 17.9167 3.39012 17.9167 4.16669 17.9167H5.83335C6.60992 17.9167 6.99821 17.9167 7.30449 17.7898C7.71287 17.6207 8.03733 17.2962 8.20649 16.8878C8.33335 16.5815 8.33335 16.1933 8.33335 15.4167C8.33335 14.6401 8.33335 14.2518 8.20649 13.9455C8.03733 13.5372 7.71287 13.2127 7.30449 13.0436C6.99821 12.9167 6.60992 12.9167 5.83335 12.9167H4.16669C3.39012 12.9167 3.00183 12.9167 2.69555 13.0436C2.28717 13.2127 1.96271 13.5372 1.79355 13.9455C1.66669 14.2518 1.66669 14.6401 1.66669 15.4167Z" fill="transparent" stroke="currentColor" stroke-width="1.5" />
    </symbol>

    <symbol id="setting" width="100%" height="100%" viewBox="0 0 20 20">
      <circle cx="10" cy="10" r="2.5" fill="transparent" stroke="currentColor" stroke-width="1.5" />
      <path d="M11.4711 1.79355C11.1648 1.66669 10.7765 1.66669 9.99997 1.66669C9.2234 1.66669 8.83512 1.66669 8.52883 1.79355C8.12045 1.96271 7.79599 2.28717 7.62684 2.69555C7.54962 2.88197 7.5194 3.09877 7.50757 3.41501C7.49019 3.87975 7.25186 4.30993 6.8491 4.54246C6.44634 4.77499 5.95464 4.7663 5.54347 4.54899C5.26368 4.4011 5.06082 4.31887 4.86076 4.29253C4.42251 4.23484 3.9793 4.3536 3.62861 4.62269C3.3656 4.8245 3.17146 5.16077 2.78317 5.8333C2.39489 6.50583 2.20075 6.84209 2.15747 7.17077C2.09978 7.60902 2.21854 8.05224 2.48763 8.40292C2.61045 8.56298 2.78307 8.69754 3.05097 8.86587C3.44481 9.11334 3.69822 9.5349 3.6982 10C3.69817 10.4651 3.44477 10.8866 3.05097 11.1341C2.78302 11.3024 2.61038 11.437 2.48755 11.5971C2.21846 11.9477 2.0997 12.391 2.15739 12.8292C2.20066 13.1579 2.39481 13.4942 2.78309 14.1667C3.17138 14.8392 3.36552 15.1755 3.62853 15.3773C3.97922 15.6464 4.42243 15.7651 4.86068 15.7074C5.06072 15.6811 5.26358 15.5989 5.54335 15.451C5.95454 15.2337 6.44628 15.225 6.84906 15.4576C7.25185 15.6901 7.49019 16.1203 7.50758 16.5851C7.5194 16.9013 7.54962 17.1181 7.62684 17.3045C7.79599 17.7129 8.12045 18.0373 8.52883 18.2065C8.83512 18.3334 9.2234 18.3334 9.99997 18.3334C10.7765 18.3334 11.1648 18.3334 11.4711 18.2065C11.8795 18.0373 12.2039 17.7129 12.3731 17.3045C12.4503 17.1181 12.4805 16.9013 12.4924 16.585C12.5097 16.1203 12.7481 15.6901 13.1508 15.4576C13.5536 15.225 14.0453 15.2336 14.4565 15.451C14.7363 15.5988 14.9391 15.6811 15.1392 15.7074C15.5774 15.7651 16.0206 15.6463 16.3713 15.3772C16.6343 15.1754 16.8285 14.8392 17.2168 14.1666C17.6051 13.4941 17.7992 13.1578 17.8425 12.8292C17.9002 12.3909 17.7814 11.9477 17.5123 11.597C17.3895 11.4369 17.2169 11.3024 16.9489 11.134C16.5551 10.8866 16.3017 10.465 16.3017 9.99995C16.3018 9.53489 16.5551 9.11342 16.9489 8.86601C17.2169 8.69764 17.3896 8.56307 17.5124 8.40298C17.7815 8.05229 17.9002 7.60908 17.8425 7.17083C17.7993 6.84215 17.6051 6.50588 17.2168 5.83335C16.8286 5.16083 16.6344 4.82456 16.3714 4.62274C16.0207 4.35365 15.5775 4.2349 15.1393 4.29259C14.9392 4.31893 14.7364 4.40115 14.4566 4.54902C14.0454 4.76635 13.5537 4.77504 13.1509 4.54249C12.7481 4.30994 12.5097 3.87974 12.4924 3.41497C12.4805 3.09875 12.4503 2.88196 12.3731 2.69555C12.2039 2.28717 11.8795 1.96271 11.4711 1.79355Z" fill="transparent" stroke="currentColor" stroke-width="1.5" />
    </symbol>

    <symbol id="wheel" width="100%" height="100%" viewBox="0 0 20 20">
      <circle cx="10" cy="10" r="8.33333" fill="transparent" stroke="currentColor" stroke-width="1.5" />
      <circle cx="10" cy="10" r="5" fill="transparent" stroke="currentColor" stroke-width="1.5" />
      <circle cx="9.99998" cy="9.99998" r="1.66667" fill="transparent" stroke="currentColor" stroke-width="1.5" />
      <path d="M5 10L8.33333 10" fill="transparent" stroke="currentColor" stroke-width="1.5" stroke-linecap="round" />
      <path d="M11.6667 10L15 10" fill="transparent" stroke="currentColor" stroke-width="1.5" stroke-linecap="round" />
      <path d="M7.5 14.3301L9.16667 11.4434" fill="transparent" stroke="currentColor" stroke-width="1.5" stroke-linecap="round" />
      <path d="M10.8333 8.55676L12.4999 5.67001" fill="transparent" stroke="currentColor" stroke-width="1.5" stroke-linecap="round" />
      <path d="M12.5 14.3303L10.8333 11.4435" fill="transparent" stroke="currentColor" stroke-width="1.5" stroke-linecap="round" />
      <path d="M9.16669 8.5567L7.50002 5.66995" fill="transparent" stroke="currentColor" stroke-width="1.5" stroke-linecap="round" />
    </symbol>

    <symbol id="setting-min" width="100%" height="100%" viewBox="0 0 20 20">
      <path d="M16.8316 6.5359C17.8327 8.2265 18.3333 9.0718 18.3333 10C18.3333 10.9282 17.8327 11.7735 16.8316 13.4641L16.4929 14.0359C15.4918 15.7265 14.9912 16.5718 14.1666 17.0359C13.3421 17.5 12.3409 17.5 10.3386 17.5L9.66136 17.5C7.65901 17.5 6.65784 17.5 5.83331 17.0359C5.00879 16.5718 4.5082 15.7265 3.50703 14.0359L3.16841 13.4641C2.16723 11.7735 1.66665 10.9282 1.66665 10C1.66665 9.0718 2.16723 8.2265 3.16841 6.5359L3.50703 5.9641C4.5082 4.2735 5.00879 3.4282 5.83331 2.9641C6.65784 2.5 7.65901 2.5 9.66136 2.5L10.3386 2.5C12.3409 2.5 13.3421 2.5 14.1666 2.9641C14.9912 3.4282 15.4918 4.2735 16.4929 5.9641L16.8316 6.5359Z" fill="transparent" stroke="currentColor" stroke-width="1.5" />
      <circle cx="10" cy="10" r="2.5" transform="rotate(90 10 10)" fill="transparent" stroke="currentColor" stroke-width="1.5" />
    </symbol>

    <symbol id="doc" width="100%" height="100%" viewBox="0 0 25 24">
      <path d="M2 10.0004V14.0004C2 16.8288 2 18.243 2.87868 19.1217C3.09602 19.339 3.34612 19.5026 3.64228 19.6257C3.63556 19.5812 3.62922 19.5366 3.62321 19.492C3.49986 18.5745 3.49992 17.4288 3.5 16.099L3.5 8.0003L3.5 7.90155V7.90155C3.49992 6.57182 3.49986 5.4261 3.62321 4.50861C3.62921 4.46399 3.63555 4.41944 3.64226 4.375C3.34611 4.49812 3.09601 4.6617 2.87868 4.87903C2 5.75771 2 7.17192 2 10.0004Z" fill="currentColor" />
      <path d="M22 10.0004V14.0004C22 16.8288 22 18.243 21.1213 19.1217C20.904 19.339 20.6539 19.5026 20.3577 19.6257C20.3644 19.5812 20.3708 19.5366 20.3768 19.492C20.5001 18.5745 20.5001 17.4288 20.5 16.099V7.90156C20.5001 6.57183 20.5001 5.4261 20.3768 4.50861C20.3708 4.46399 20.3644 4.41944 20.3577 4.375C20.6539 4.49812 20.904 4.6617 21.1213 4.87903C22 5.75771 22 7.17192 22 10.0004Z" fill="currentColor" />
      <path fill-rule="evenodd" clip-rule="evenodd" d="M5.87868 2.87868C5 3.75736 5 5.17157 5 8V16C5 18.8284 5 20.2426 5.87868 21.1213C6.75736 22 8.17157 22 11 22H13C15.8284 22 17.2426 22 18.1213 21.1213C19 20.2426 19 18.8284 19 16V8C19 5.17157 19 3.75736 18.1213 2.87868C17.2426 2 15.8284 2 13 2H11C8.17157 2 6.75736 2 5.87868 2.87868ZM8.25 17C8.25 16.5858 8.58579 16.25 9 16.25H12C12.4142 16.25 12.75 16.5858 12.75 17C12.75 17.4142 12.4142 17.75 12 17.75H9C8.58579 17.75 8.25 17.4142 8.25 17ZM9 12.25C8.58579 12.25 8.25 12.5858 8.25 13C8.25 13.4142 8.58579 13.75 9 13.75H15C15.4142 13.75 15.75 13.4142 15.75 13C15.75 12.5858 15.4142 12.25 15 12.25H9ZM8.25 9C8.25 8.58579 8.58579 8.25 9 8.25H15C15.4142 8.25 15.75 8.58579 15.75 9C15.75 9.41421 15.4142 9.75 15 9.75H9C8.58579 9.75 8.25 9.41421 8.25 9Z" fill="currentColor" />
    </symbol>

  </defs>
</svg>