<?xml version="1.0"?>
<svg xmlns="http://www.w3.org/2000/svg" xmlns:xlink="http://www.w3.org/1999/xlink" version="1.1" xml:space="preserve">
  <defs>

    <symbol id="loader" width="100%" height="100%" viewBox="22 22 44 44">
      <circle cx="44" cy="44" r="20.2" fill="none" stroke="currentColor" stroke-width="4"></circle>
    </symbol>

    <symbol id="burger" width="100%" height="100%" viewBox="0 0 24 24">
      <path d="M20 7L4 7" fill="transparent" stroke="currentColor" stroke-width="2" stroke-linecap="round" />
      <path d="M20 12L4 12" fill="transparent" stroke="currentColor" stroke-width="2" stroke-linecap="round" />
      <path d="M20 17L4 17" fill="transparent" stroke="currentColor" stroke-width="2" stroke-linecap="round" />
    </symbol>

    <symbol id="dots" width="100%" height="100%" viewBox="0 0 24 24">
      <path d="M5 6C5.55228 6 6 5.55228 6 5C6 4.44772 5.55228 4 5 4C4.44772 4 4 4.44772 4 5C4 5.55228 4.44772 6 5 6Z" fill="transparent" stroke="currentColor" stroke-width="2" stroke-linecap="round" stroke-linejoin="round" />
      <path d="M12 6C12.5523 6 13 5.55228 13 5C13 4.44772 12.5523 4 12 4C11.4477 4 11 4.44772 11 5C11 5.55228 11.4477 6 12 6Z" fill="transparent" stroke="currentColor" stroke-width="2" stroke-linecap="round" stroke-linejoin="round" />
      <path d="M19 6C19.5523 6 20 5.55228 20 5C20 4.44772 19.5523 4 19 4C18.4477 4 18 4.44772 18 5C18 5.55228 18.4477 6 19 6Z" fill="transparent" stroke="currentColor" stroke-width="2" stroke-linecap="round" stroke-linejoin="round" />
      <path d="M5 13C5.55228 13 6 12.5523 6 12C6 11.4477 5.55228 11 5 11C4.44772 11 4 11.4477 4 12C4 12.5523 4.44772 13 5 13Z" fill="transparent" stroke="currentColor" stroke-width="2" stroke-linecap="round" stroke-linejoin="round" />
      <path d="M12 13C12.5523 13 13 12.5523 13 12C13 11.4477 12.5523 11 12 11C11.4477 11 11 11.4477 11 12C11 12.5523 11.4477 13 12 13Z" fill="transparent" stroke="currentColor" stroke-width="2" stroke-linecap="round" stroke-linejoin="round" />
      <path d="M19 13C19.5523 13 20 12.5523 20 12C20 11.4477 19.5523 11 19 11C18.4477 11 18 11.4477 18 12C18 12.5523 18.4477 13 19 13Z" fill="transparent" stroke="currentColor" stroke-width="2" stroke-linecap="round" stroke-linejoin="round" />
      <path d="M5 20C5.55228 20 6 19.5523 6 19C6 18.4477 5.55228 18 5 18C4.44772 18 4 18.4477 4 19C4 19.5523 4.44772 20 5 20Z" fill="transparent" stroke="currentColor" stroke-width="2" stroke-linecap="round" stroke-linejoin="round" />
      <path d="M12 20C12.5523 20 13 19.5523 13 19C13 18.4477 12.5523 18 12 18C11.4477 18 11 18.4477 11 19C11 19.5523 11.4477 20 12 20Z" fill="transparent" stroke="currentColor" stroke-width="2" stroke-linecap="round" stroke-linejoin="round" />
      <path d="M19 20C19.5523 20 20 19.5523 20 19C20 18.4477 19.5523 18 19 18C18.4477 18 18 18.4477 18 19C18 19.5523 18.4477 20 19 20Z" fill="transparent" stroke="currentColor" stroke-width="2" stroke-linecap="round" stroke-linejoin="round" />
    </symbol>

    <symbol id="close" width="100%" height="100%" viewBox="0 0 22 22">
      <path d="M21 1.00008L1.00008 21M1 1L20.9999 20.9999" fill="transparent" stroke="currentColor" stroke-width="1.5" stroke-linecap="round" />
    </symbol>

    <symbol id="success" width="100%" height="100%" viewBox="0 0 68 68">
      <path fill-rule="evenodd" clip-rule="evenodd" d="M34 68C52.7777 68 68 52.7777 68 34C68 15.2223 52.7777 0 34 0C15.2223 0 0 15.2223 0 34C0 52.7777 15.2223 68 34 68ZM49.7552 28.5052C51.4149 26.8455 51.4149 24.1545 49.7552 22.4948C48.0955 20.8351 45.4045 20.8351 43.7448 22.4948L29.75 36.4896L24.2552 30.9948C22.5955 29.3351 19.9045 29.3351 18.2448 30.9948C16.5851 32.6545 16.5851 35.3455 18.2448 37.0052L26.7448 45.5052C28.4045 47.1649 31.0955 47.1649 32.7552 45.5052L49.7552 28.5052Z" fill="currentColor" />
    </symbol>

    <symbol id="arrow-left" width="100%" height="100%" viewBox="0 0 11 18">
      <path d="M3.76777 9L9.88388 2.88388C10.372 2.39573 10.372 1.60427 9.88388 1.11612C9.39573 0.627961 8.60427 0.627961 8.11612 1.11612L1.11612 8.11612C0.62796 8.60427 0.62796 9.39573 1.11612 9.88388L8.11612 16.8839C8.60427 17.372 9.39573 17.372 9.88388 16.8839C10.372 16.3957 10.372 15.6043 9.88388 15.1161L3.76777 9Z" fill="currentColor" />
    </symbol>

    <symbol id="arrow-right" width="100%" height="100%" viewBox="0 0 11 18">
      <path d="M7.23223 9L1.11612 2.88388C0.627961 2.39573 0.627961 1.60427 1.11612 1.11612C1.60427 0.627961 2.39573 0.627961 2.88388 1.11612L9.88388 8.11612C10.372 8.60427 10.372 9.39573 9.88388 9.88388L2.88388 16.8839C2.39573 17.372 1.60427 17.372 1.11612 16.8839C0.627961 16.3957 0.627961 15.6043 1.11612 15.1161L7.23223 9Z" fill="currentColor" />
    </symbol>

    <symbol id="mobile" width="100%" height="100%" viewBox="0 0 12 20">
      <path d="M9.64708 0H2.35292C1.05882 0 0 1.09091 0 2.42424V17.5758C0 18.9091 1.05882 20 2.35292 20H9.64708C10.9412 20 12 18.9091 12 17.5758V2.42424C12 1.09091 10.9412 0 9.64708 0ZM6.00007 17.2121C5.52949 17.2121 5.05884 16.8485 5.05884 16.2424C5.05884 15.7576 5.41184 15.2727 6.00007 15.2727C6.47066 15.2727 6.94116 15.6364 6.94116 16.2424C6.82351 16.8485 6.47066 17.2121 6.00007 17.2121ZM7.52939 4.48483H4.58823C4.11765 4.48483 3.64715 4.1212 3.64715 3.51514C3.64715 3.0303 4 2.54546 4.58823 2.54546H7.52939C7.99997 2.54546 8.47061 2.90908 8.47061 3.51514C8.35297 3.99999 7.99997 4.48483 7.52939 4.48483Z" fill="currentColor" />
    </symbol>

    <symbol id="geo" width="100%" height="100%" viewBox="0 0 16 19">
      <path fill-rule="evenodd" clip-rule="evenodd" d="M8.39512 17.9088C10.007 17.0906 16 13.6623 16 7.91877C16 3.54535 12.4183 0 8 0C3.58172 0 0 3.54535 0 7.91877C0 13.6623 5.99301 17.0906 7.60488 17.9088C7.85653 18.0365 8.14347 18.0365 8.39512 17.9088ZM8 11.3136C9.89355 11.3136 11.4286 9.79393 11.4286 7.91933C11.4286 6.04473 9.89355 4.52507 8 4.52507C6.10645 4.52507 4.57143 6.04473 4.57143 7.91933C4.57143 9.79393 6.10645 11.3136 8 11.3136Z" fill="currentColor" />
    </symbol>

    <symbol id="email" width="100%" height="100%" viewBox="0 0 20 16">
      <path fill-rule="evenodd" clip-rule="evenodd" d="M1.90725 1.74045C0.833313 2.81439 0.833313 4.54287 0.833313 7.99984C0.833313 11.4568 0.833313 13.1853 1.90725 14.2592C2.9812 15.3332 4.70968 15.3332 8.16665 15.3332H11.8333C15.2903 15.3332 17.0188 15.3332 18.0927 14.2592C19.1666 13.1853 19.1666 11.4568 19.1666 7.99984C19.1666 4.54287 19.1666 2.81439 18.0927 1.74045C17.0188 0.666504 15.2903 0.666504 11.8333 0.666504H8.16665C4.70968 0.666504 2.9812 0.666504 1.90725 1.74045ZM16.0281 3.89304C16.2712 4.18473 16.2318 4.61825 15.9401 4.86132L13.9267 6.53919C13.1142 7.21629 12.4556 7.7651 11.8744 8.13892C11.2689 8.52832 10.6793 8.77431 9.99998 8.77431C9.32066 8.77431 8.73101 8.52832 8.12556 8.13892C7.54434 7.7651 6.8858 7.2163 6.07331 6.5392L4.05985 4.86132C3.76816 4.61825 3.72875 4.18473 3.97183 3.89304C4.2149 3.60135 4.64842 3.56194 4.94011 3.80502L6.91909 5.45417C7.77431 6.16685 8.36807 6.66005 8.86935 6.98245C9.35459 7.29455 9.68366 7.39931 9.99998 7.39931C10.3163 7.39931 10.6454 7.29455 11.1306 6.98245C11.6319 6.66005 12.2257 6.16685 13.0809 5.45417L15.0599 3.80502C15.3515 3.56194 15.7851 3.60135 16.0281 3.89304Z" fill="currentColor" />
    </symbol>

  </defs>
</svg>