<?xml version="1.0" standalone="no"?>
<!DOCTYPE svg PUBLIC "-//W3C//DTD SVG 20010904//EN"
 "http://www.w3.org/TR/2001/REC-SVG-20010904/DTD/svg10.dtd">
<svg version="1.0" xmlns="http://www.w3.org/2000/svg"
 width="260.000000pt" height="260.000000pt" viewBox="0 0 260.000000 260.000000"
 preserveAspectRatio="xMidYMid meet">
<metadata>
Created by potrace 1.14, written by Peter Selinger 2001-2017
</metadata>
<g transform="translate(0.000000,260.000000) scale(0.100000,-0.100000)"
fill="#000000" stroke="none">
<path d="M1238 2183 c39 -2 105 -2 145 0 39 1 7 3 -73 3 -80 0 -112 -2 -72 -3z"/>
<path d="M1063 2163 c-10 -10 -13 -14 -5 -9 8 6 32 13 55 17 l42 6 -36 2 c-23
1 -44 -6 -56 -16z"/>
<path d="M1505 2173 c17 -3 36 -9 43 -15 8 -7 12 -7 12 0 0 13 -26 22 -58 21
-26 -2 -26 -2 3 -6z"/>
<path d="M1839 2063 c-13 -16 -12 -17 4 -4 14 11 20 11 35 0 15 -13 16 -12 3
4 -7 9 -17 17 -21 17 -4 0 -14 -8 -21 -17z"/>
<path d="M965 2049 c-16 -10 -25 -19 -20 -19 6 0 24 9 40 20 17 11 26 20 20
19 -5 0 -23 -9 -40 -20z"/>
<path d="M1591 2067 c2 -1 13 -9 24 -17 19 -14 19 -14 6 3 -7 9 -18 17 -24 17
-6 0 -8 -1 -6 -3z"/>
<path d="M750 2046 c68 -26 75 -27 40 -7 -19 11 -44 20 -55 20 -12 0 -7 -5 15
-13z"/>
<path d="M628 1999 c-43 -27 -103 -74 -134 -103 l-56 -53 16 -31 c21 -41 20
-65 -3 -111 -25 -47 -57 -69 -126 -84 -44 -9 -56 -16 -64 -36 -27 -69 -52
-170 -57 -231 l-7 -68 34 -17 c81 -41 111 -98 85 -160 l-16 -37 -80 4 c-44 2
-80 0 -80 -3 0 -17 43 -57 85 -78 54 -27 64 -44 41 -70 -23 -25 -21 -29 24
-42 29 -9 50 -26 84 -70 61 -79 76 -86 164 -81 l74 4 -23 21 c-13 12 -18 22
-11 25 6 2 43 -24 81 -57 39 -33 80 -65 93 -72 14 -7 18 -14 11 -16 -7 -3 -27
6 -45 18 l-31 23 6 -25 c4 -13 7 -42 7 -65 0 -41 0 -41 68 -72 78 -36 283 -92
334 -92 24 0 44 8 62 25 88 81 194 77 275 -9 14 -14 30 -26 37 -26 26 0 330
92 352 106 16 11 22 24 22 53 0 22 3 46 6 54 4 12 0 14 -18 11 -21 -5 -20 -3
7 18 17 12 53 43 80 69 49 46 95 70 95 50 0 -5 -11 -18 -25 -29 l-24 -19 76
-6 c88 -7 91 -5 171 88 38 45 64 65 93 74 44 13 46 17 23 42 -23 26 -13 43 41
70 42 21 85 61 85 78 0 3 -40 4 -88 3 l-89 -4 -17 37 c-35 73 5 140 107 179
l48 18 -7 61 c-3 34 -10 78 -15 97 -7 28 -7 24 -3 -20 3 -30 7 -72 10 -93 5
-34 3 -38 -23 -47 -122 -43 -170 -119 -128 -200 l16 -30 -34 0 -34 0 18 78
c19 79 25 274 9 337 -4 18 -7 -20 -8 -95 -1 -124 -9 -182 -38 -272 -13 -40
-20 -48 -39 -48 -24 0 -24 1 -18 65 7 72 -2 81 -35 36 -15 -21 -27 -28 -42
-24 -16 4 -20 1 -20 -21 0 -40 -36 -34 -61 9 -20 34 -39 46 -39 25 0 -14 -26
-12 -38 3 -8 9 5 29 49 76 33 35 58 67 57 71 -2 4 -160 166 -351 360 l-348
353 -124 -122 c-99 -99 -128 -122 -144 -116 -16 5 -45 -18 -144 -110 -120
-114 -125 -117 -173 -119 -27 -2 -59 -6 -71 -10 -17 -5 -23 -3 -23 8 0 20 9
25 77 37 54 10 103 39 103 62 0 14 -102 -3 -130 -22 -42 -29 -60 -17 -60 40 0
27 -4 49 -9 49 -11 0 -44 -45 -54 -72 -6 -16 -9 -16 -50 -1 l-45 16 15 35 c14
34 13 82 -1 127 -9 26 49 86 154 157 41 28 79 55 85 60 22 19 -5 5 -77 -43z
m598 -445 c13 -53 -56 -77 -78 -28 -11 23 -10 29 10 44 28 23 60 15 68 -16z
m85 26 c12 -7 19 -21 19 -40 0 -23 -5 -31 -25 -36 -15 -4 -32 -1 -40 6 -20 17
-19 57 3 69 21 13 20 13 43 1z m125 -25 c9 -22 -15 -55 -39 -55 -47 0 -63 48
-25 74 23 16 54 7 64 -19z m-831 -33 c-14 -65 -55 -65 -58 -1 -2 27 2 34 23
39 33 9 43 -2 35 -38z m62 -76 c-3 -7 -1 -18 4 -23 5 -5 -10 -30 -38 -62 l-46
-53 169 -169 c157 -158 167 -169 139 -169 -26 0 -52 22 -170 140 -77 77 -144
140 -150 140 -15 1 -75 104 -75 129 0 12 7 22 15 23 8 0 21 1 27 2 7 1 15 -12
18 -27 l5 -28 40 41 c38 39 38 40 10 26 -32 -17 -49 -9 -39 17 6 17 24 24 68
26 20 1 27 -3 23 -13z m1020 -72 c61 -39 68 -133 14 -188 -28 -28 -38 -31 -91
-31 -54 0 -63 3 -92 33 -28 28 -33 39 -33 81 0 60 26 100 76 118 38 14 93 8
126 -13z m-617 -99 l0 -115 -25 0 c-25 0 -25 0 -25 95 l0 95 -50 0 -50 0 0
-95 c0 -95 0 -95 -25 -95 l-25 0 0 115 0 115 100 0 100 0 0 -115z m279 89 c12
-15 21 -38 21 -51 0 -36 -42 -73 -85 -73 -34 0 -35 -1 -35 -40 0 -36 -2 -40
-25 -40 l-25 0 0 115 0 115 64 0 c58 0 67 -3 85 -26z m-798 -161 c12 -60 -22
-68 -55 -13 -21 36 -13 52 22 48 21 -2 28 -10 33 -35z m63 -64 c-24 -41 -38
-42 -42 -2 -3 28 0 32 25 35 38 5 38 4 17 -33z m-46 -81 c7 -7 12 -19 12 -27
0 -11 -4 -10 -20 4 -21 19 -26 35 -12 35 4 0 13 -5 20 -12z m1492 7 c0 -2 -16
-21 -35 -41 -19 -20 -33 -40 -29 -45 3 -5 -32 -9 -81 -9 l-86 0 13 23 c10 19
13 20 16 5 3 -13 13 -18 41 -18 36 0 38 2 33 26 -5 25 -3 26 31 22 30 -3 37 0
46 19 9 19 51 34 51 18z m-1410 -65 c0 -25 -4 -30 -25 -30 -20 0 -25 5 -25 23
0 28 7 37 32 37 13 0 18 -8 18 -30z m396 10 c0 -9 -8 -16 -18 -16 -10 0 -18 7
-18 16 0 9 8 16 18 16 10 0 18 -7 18 -16z m44 -2 c0 -16 -3 -19 -11 -11 -6 6
-8 16 -5 22 11 17 16 13 16 -11z m90 2 c6 -11 7 -20 2 -20 -6 0 -12 9 -15 20
-3 11 -3 20 -1 20 2 0 8 -9 14 -20z m261 -10 c5 0 9 8 10 18 0 14 2 14 9 -3
13 -30 12 -30 -20 -30 -21 0 -29 4 -25 13 3 8 6 19 6 25 1 7 3 4 6 -5 2 -10 9
-18 14 -18z m55 4 c-4 -9 -9 -15 -11 -12 -3 3 -3 13 1 22 4 9 9 15 11 12 3 -3
3 -13 -1 -22z m34 -7 c0 -5 -4 -5 -10 -2 -5 3 -10 14 -10 23 0 15 2 15 10 2 5
-8 10 -19 10 -23z m40 19 c0 -8 -4 -18 -10 -21 -5 -3 -10 3 -10 14 0 12 5 21
10 21 6 0 10 -6 10 -14z m-415 -5 c3 -5 1 -12 -5 -16 -5 -3 -10 1 -10 9 0 18
6 21 15 7z m73 -7 c14 -15 14 -16 -3 -13 -10 2 -20 10 -23 17 -5 17 6 15 26
-4z m52 7 c0 -6 -4 -13 -10 -16 -5 -3 -10 1 -10 9 0 9 5 16 10 16 6 0 10 -4
10 -9z m40 -6 c0 -8 -4 -15 -10 -15 -5 0 -10 7 -10 15 0 8 5 15 10 15 6 0 10
-7 10 -15z m30 5 c0 -14 27 -12 33 3 4 9 6 9 6 0 1 -17 -16 -25 -39 -18 -21 7
-28 25 -10 25 6 0 10 -4 10 -10z m-600 -26 c0 -8 -4 -14 -10 -14 -5 0 -10 9
-10 21 0 11 5 17 10 14 6 -3 10 -13 10 -21z m645 -83 c59 -21 66 -40 35 -103
l-21 -43 7 52 6 52 -36 15 c-20 8 -46 22 -58 31 -21 14 -21 15 -3 14 11 0 43
-8 70 -18z m-213 -75 c-2 -25 3 -69 12 -99 9 -30 16 -60 16 -66 0 -24 -28 -8
-80 44 -54 55 -57 67 -10 40 14 -8 28 -14 31 -15 4 0 10 32 13 70 8 76 23 99
18 26z m-399 -121 c17 -26 15 -25 -21 10 -23 21 -42 43 -42 49 0 13 38 -23 63
-59z m76 19 c18 -25 30 -48 28 -51 -5 -4 -77 80 -77 91 0 17 19 1 49 -40z m91
-17 c38 -42 46 -54 25 -40 -41 28 -107 104 -89 102 5 -1 34 -29 64 -62z m597
26 c-8 -15 -25 -37 -38 -48 l-22 -20 16 28 c43 70 49 78 54 74 2 -3 -2 -18
-10 -34z m154 19 c-12 -22 -90 -96 -118 -111 -11 -5 9 20 46 58 67 69 90 86
72 53z m79 9 c0 -5 -21 -31 -46 -58 -48 -51 -49 -45 -2 25 27 39 48 54 48 33z
m69 -27 c-18 -20 -52 -50 -74 -67 -29 -22 -23 -13 25 36 35 37 69 67 74 67 6
0 -6 -16 -25 -36z m-775 -21 c19 -33 21 -42 9 -31 -25 23 -56 78 -44 78 5 0
21 -21 35 -47z m374 -20 c-30 -32 -62 -72 -72 -88 -10 -17 -31 -38 -48 -48
-27 -16 -33 -16 -53 -3 -12 8 -25 24 -28 36 -5 20 -4 21 18 6 14 -9 31 -16 39
-16 20 0 73 66 91 115 8 22 13 30 11 18 -5 -25 8 -31 21 -10 10 16 54 47 67
47 5 0 -16 -26 -46 -57z m152 38 c-5 -11 -15 -23 -21 -27 -6 -3 -3 5 6 20 20
30 30 35 15 7z"/>
<path d="M1167 1563 c-13 -12 -7 -41 9 -47 22 -9 34 1 34 30 0 17 -6 24 -18
24 -10 0 -22 -3 -25 -7z"/>
<path d="M1266 1553 c-4 -9 0 -23 9 -32 13 -14 17 -14 31 1 9 9 14 24 11 32
-8 21 -43 20 -51 -1z"/>
<path d="M1377 1563 c-11 -10 -8 -41 4 -49 16 -9 43 21 36 40 -7 16 -28 21
-40 9z"/>
<path d="M1581 1349 c-33 -13 -50 -38 -51 -75 0 -49 30 -79 80 -79 50 0 80 30
80 79 0 31 -30 76 -50 76 -4 0 -14 2 -22 4 -7 3 -24 0 -37 -5z"/>
<path d="M1257 1353 c-4 -3 -7 -21 -7 -40 0 -28 4 -33 23 -33 49 0 65 54 21
70 -30 12 -29 12 -37 3z"/>
<path d="M2050 1966 c0 -2 8 -10 18 -17 15 -13 16 -12 3 4 -13 16 -21 21 -21
13z"/>
<path d="M789 1910 c-33 -27 -68 -85 -57 -95 2 -2 17 -1 34 3 27 8 54 45 77
105 10 26 -14 21 -54 -13z"/>
<path d="M1769 1881 c22 -43 37 -60 57 -65 37 -10 41 0 19 42 -18 33 -76 82
-97 82 -4 0 5 -26 21 -59z"/>
<path d="M2090 1936 c0 -2 8 -10 18 -17 15 -13 16 -12 3 4 -13 16 -21 21 -21
13z"/>
<path d="M924 1899 c-16 -5 -41 -21 -55 -35 l-24 -27 45 7 c39 6 130 49 130
61 0 8 -63 4 -96 -6z"/>
<path d="M1580 1904 c0 -16 77 -53 121 -60 l44 -7 -20 22 c-11 13 -27 26 -35
31 -23 13 -110 23 -110 14z"/>
<path d="M2131 1867 c-13 -21 -12 -21 5 -5 10 10 16 20 13 22 -3 3 -11 -5 -18
-17z"/>
<path d="M686 1829 c-28 -22 -49 -58 -60 -101 -6 -24 -3 -28 16 -28 39 0 50
16 64 81 7 35 12 65 10 66 -2 2 -15 -6 -30 -18z"/>
<path d="M1886 1788 c16 -69 28 -88 55 -88 39 0 6 94 -46 132 l-23 18 14 -62z"/>
<path d="M741 1733 c-14 -9 -21 -11 -17 -5 4 7 2 12 -3 12 -13 0 -13 -3 -5
-24 4 -11 15 -14 37 -10 102 17 137 26 132 35 -11 16 -118 10 -144 -8z"/>
<path d="M1710 1741 c0 -11 18 -17 80 -26 25 -4 54 -9 65 -11 16 -4 15 -1 -8
20 -23 21 -38 26 -83 26 -30 0 -54 -4 -54 -9z"/>
<path d="M1981 1668 c2 -74 12 -103 37 -106 19 -3 22 1 22 35 0 40 -28 104
-48 111 -8 2 -12 -11 -11 -40z"/>
<path d="M2190 1660 c8 -5 22 -9 30 -9 10 0 8 3 -5 9 -27 12 -43 12 -25 0z"/>
<path d="M1800 1651 c0 -20 44 -51 79 -57 20 -3 44 -8 54 -11 16 -4 17 -2 8
16 -7 12 -22 27 -34 35 -28 17 -107 30 -107 17z"/>
<path d="M2280 1643 c24 -3 51 -10 60 -16 13 -11 13 -10 1 6 -10 12 -26 17
-60 15 l-46 -1 45 -4z"/>
<path d="M1950 1610 c0 -5 5 -10 11 -10 5 0 7 5 4 10 -3 6 -8 10 -11 10 -2 0
-4 -4 -4 -10z"/>
<path d="M2360 1565 c0 -5 5 -17 10 -25 5 -8 10 -10 10 -5 0 6 -5 17 -10 25
-5 8 -10 11 -10 5z"/>
<path d="M2049 1491 c-11 -62 -10 -74 2 -82 8 -5 21 -8 29 -6 28 4 25 103 -4
142 -12 17 -15 11 -27 -54z"/>
<path d="M1870 1539 c0 -28 45 -70 85 -79 22 -5 41 -7 44 -5 7 7 -28 54 -52
69 -35 23 -77 31 -77 15z"/>
<path d="M2079 1315 c-17 -37 -29 -68 -27 -69 2 -2 15 -6 30 -10 21 -5 30 -2
38 13 13 25 13 118 0 126 -6 3 -24 -24 -41 -60z"/>
<path d="M1977 1212 c-24 -25 -26 -30 -12 -36 23 -8 53 -8 58 2 3 4 0 20 -6
35 l-12 28 -28 -29z"/>
</g>
</svg>
