<?xml version="1.0" standalone="no"?>
<!DOCTYPE svg PUBLIC "-//W3C//DTD SVG 20010904//EN"
 "http://www.w3.org/TR/2001/REC-SVG-20010904/DTD/svg10.dtd">
<svg version="1.0" xmlns="http://www.w3.org/2000/svg"
 width="260.000000pt" height="260.000000pt" viewBox="0 0 260.000000 260.000000"
 preserveAspectRatio="xMidYMid meet">
<metadata>
Created by potrace 1.14, written by Peter Selinger 2001-2017
</metadata>
<g transform="translate(0.000000,260.000000) scale(0.100000,-0.100000)"
fill="#000000" stroke="none">
<path d="M1242 2183 c37 -2 100 -2 140 0 40 1 10 3 -67 3 -77 0 -110 -1 -73
-3z"/>
<path d="M1103 2173 c9 -2 23 -2 30 0 6 3 -1 5 -18 5 -16 0 -22 -2 -12 -5z"/>
<path d="M1498 2173 c6 -2 18 -2 25 0 6 3 1 5 -13 5 -14 0 -19 -2 -12 -5z"/>
<path d="M1839 2063 c-13 -16 -12 -17 4 -4 14 11 20 11 35 0 15 -13 16 -12 3
4 -7 9 -17 17 -21 17 -4 0 -14 -8 -21 -17z"/>
<path d="M760 2046 c0 -2 7 -7 16 -10 8 -3 12 -2 9 4 -6 10 -25 14 -25 6z"/>
<path d="M950 2040 c-9 -6 -10 -10 -3 -10 6 0 15 5 18 10 8 12 4 12 -15 0z"/>
<path d="M1168 1894 c-103 -102 -131 -124 -148 -119 -17 5 -46 -18 -153 -124
-74 -72 -137 -131 -140 -131 -4 0 -6 6 -5 13 2 8 -7 11 -27 10 -16 -2 -43 -4
-58 -5 -19 -1 -24 -4 -15 -10 10 -6 10 -8 0 -8 -7 0 -18 -11 -24 -25 -14 -31
-44 -33 -52 -2 -15 56 -3 77 45 77 17 0 19 8 19 70 0 39 -4 70 -9 70 -15 0
-49 -53 -56 -86 -15 -63 -14 -63 -49 -58 -48 6 -91 27 -91 44 1 8 13 28 28 44
39 42 53 96 37 145 -16 49 -8 64 65 121 78 62 103 83 85 74 -28 -14 -140 -105
-160 -131 -18 -23 -18 -27 -5 -54 20 -38 19 -62 -5 -109 -25 -50 -52 -67 -122
-82 -63 -13 -61 -10 -98 -132 -11 -37 -23 -99 -26 -136 l-7 -68 34 -17 c81
-41 111 -98 85 -160 l-16 -37 -80 4 c-44 2 -80 1 -80 -2 0 -18 38 -54 81 -76
57 -28 68 -47 45 -73 -23 -25 -21 -29 24 -42 30 -9 50 -25 74 -58 66 -89 78
-96 159 -92 39 1 74 4 76 6 2 2 -5 12 -14 22 -12 12 -14 18 -6 21 7 2 39 -19
71 -47 32 -28 83 -68 112 -87 55 -37 31 -39 -30 -2 -18 11 -34 19 -36 17 -1
-2 0 -29 2 -60 l4 -57 66 -30 c78 -36 283 -92 334 -92 25 0 45 9 73 34 78 69
171 68 250 -5 23 -21 47 -39 53 -39 17 0 287 79 327 96 40 16 42 19 48 86 l4
47 -28 -14 c-55 -29 -51 -14 7 26 32 23 80 61 106 85 60 56 108 63 58 9 l-21
-22 72 -6 c83 -7 87 -5 167 88 38 45 64 65 93 74 44 13 46 17 23 42 -22 24
-13 44 31 65 38 18 95 66 95 81 0 4 -40 6 -88 5 l-89 -4 -17 37 c-34 71 0 133
97 174 26 11 47 22 47 25 0 3 -23 -5 -51 -16 -98 -41 -139 -113 -105 -184 l16
-34 -36 0 c-30 0 -34 3 -29 19 32 101 45 321 24 396 -5 20 -7 3 -4 -50 6 -94
-8 -220 -33 -302 -17 -54 -20 -58 -51 -61 -29 -3 -33 -1 -26 15 4 10 9 41 12
68 l4 50 -45 -50 c-48 -51 -59 -85 -29 -85 12 0 5 -12 -25 -43 -23 -24 -39
-46 -36 -50 4 -4 -40 -6 -97 -6 -57 1 -94 4 -82 6 13 2 23 13 25 25 5 32 28
35 28 4 0 -23 4 -26 33 -26 32 0 33 2 29 31 -4 30 -4 30 32 24 31 -6 36 -5 36
11 -1 25 -35 100 -50 109 -17 10 -30 -13 -30 -52 0 -34 -6 -39 -29 -24 -9 6
-11 18 -6 39 3 18 2 33 -5 37 -6 4 16 35 55 78 36 39 64 75 63 78 -3 7 -697
709 -701 709 -1 0 -59 -57 -129 -126z m46 -320 c31 -31 13 -74 -31 -74 -16 0
-27 9 -35 26 -11 23 -10 29 11 45 28 23 35 23 55 3z m97 6 c26 -15 26 -66 -1
-75 -11 -3 -29 -3 -40 0 -26 8 -28 60 -2 74 21 13 20 13 43 1z m114 -10 c37
-41 -24 -97 -63 -58 -17 17 -15 44 4 62 21 21 37 20 59 -4z m-742 -118 c16
-18 14 -22 -40 -81 l-56 -63 169 -169 c157 -158 167 -169 138 -169 -25 0 -51
22 -169 140 -77 77 -145 140 -150 140 -15 0 -74 100 -77 130 -3 22 1 25 29 28
29 3 32 0 35 -28 l3 -31 35 37 c28 29 30 34 11 24 -17 -9 -26 -9 -34 -1 -18
18 5 45 44 52 19 4 37 7 40 8 3 0 13 -7 22 -17z m627 -53 c0 -6 25 -63 55
-126 30 -64 55 -117 55 -119 0 -2 -10 -4 -23 -4 -17 0 -28 10 -40 35 -17 35
-17 35 -82 35 -65 0 -65 0 -82 -35 -10 -21 -24 -35 -35 -35 -10 0 -18 3 -18 8
0 4 26 62 57 129 53 112 60 122 86 123 15 0 27 -5 27 -11z m-229 -39 c13 -7
19 -21 19 -44 0 -41 -28 -56 -105 -56 l-55 0 0 -46 c0 -32 -4 -44 -12 -42 -9
3 -14 35 -16 101 l-3 97 76 0 c42 0 85 -5 96 -10z m564 -2 c14 -6 25 -15 25
-21 0 -5 -8 -6 -17 -1 -10 4 -40 9 -66 12 -40 3 -53 0 -73 -19 -40 -37 -31
-99 17 -124 36 -19 66 -19 103 0 33 18 36 18 36 5 0 -16 -57 -40 -95 -40 -43
0 -90 23 -105 49 -20 39 -12 91 19 122 25 24 38 29 80 29 27 0 62 -5 76 -12z
m-1091 -158 c13 -66 -27 -72 -59 -10 -20 39 -19 48 8 52 30 5 43 -6 51 -42z
m76 -25 c0 -2 -8 -20 -17 -40 -19 -39 -38 -45 -46 -14 -10 37 5 54 51 58 6 0
12 -1 12 -4z m-50 -143 c0 -12 -6 -10 -25 8 -13 12 -22 27 -19 32 8 12 44 -21
44 -40z m74 -10 c-1 -7 -2 -21 -2 -32 -2 -14 -9 -20 -27 -20 -21 0 -25 5 -25
29 0 20 6 31 18 34 24 6 37 2 36 -11z m95 -34 c1 -10 -3 -18 -9 -18 -5 0 -10
17 -9 38 0 30 2 33 9 17 5 -11 9 -28 9 -37z m297 22 c0 -9 -8 -16 -18 -16 -10
0 -18 7 -18 16 0 9 8 16 18 16 10 0 18 -7 18 -16z m40 -17 c-11 -11 -19 6 -11
24 8 17 8 17 12 0 3 -10 2 -21 -1 -24z m34 27 c0 -5 -5 -10 -11 -10 -5 0 -7 5
-4 10 3 6 8 10 11 10 2 0 4 -4 4 -10z m58 -2 c19 -19 14 -25 -17 -25 -26 0
-29 3 -20 19 11 21 20 23 37 6z m46 1 c-3 -6 0 -15 7 -20 11 -7 11 -9 -3 -9
-9 0 -20 5 -23 10 -7 12 2 30 16 30 6 0 7 -5 3 -11z m48 -21 c-9 -9 -12 -7
-12 12 0 19 3 21 12 12 9 -9 9 -15 0 -24z m48 12 c0 -11 -4 -20 -10 -20 -5 0
-10 9 -10 20 0 11 5 20 10 20 6 0 10 -9 10 -20z m47 -10 c9 0 13 6 9 15 -3 8
-1 15 4 15 6 0 10 -9 10 -20 0 -15 -7 -20 -24 -20 -28 0 -41 14 -29 33 5 9 8
7 11 -5 2 -10 10 -18 19 -18z m75 0 c5 0 8 7 4 15 -3 8 -1 15 4 15 6 0 10 -4
10 -9 0 -5 2 -15 5 -23 4 -9 -4 -13 -25 -13 -32 0 -34 3 -23 32 7 17 8 17 11
1 2 -10 8 -18 14 -18z m86 10 c7 -13 8 -20 2 -20 -6 0 -13 7 -16 15 -6 14 -8
13 -20 -2 -14 -19 -18 -14 -8 11 8 22 27 20 42 -4z m42 6 c0 -8 -4 -18 -10
-21 -5 -3 -10 3 -10 14 0 12 5 21 10 21 6 0 10 -6 10 -14z m25 4 c3 -5 1 -10
-4 -10 -6 0 -11 5 -11 10 0 6 2 10 4 10 3 0 8 -4 11 -10z m-995 -117 c13 -26
31 -60 42 -75 18 -27 26 -60 9 -42 -5 5 -26 41 -46 79 -21 39 -41 74 -46 80
-5 5 -9 13 -9 18 0 19 27 -14 50 -60z m1450 62 c0 -4 -90 -176 -97 -184 -1 -2
-5 -2 -8 0 -2 3 4 21 15 40 11 19 31 60 46 92 15 31 31 57 35 57 5 0 9 -2 9
-5z m-655 -65 c42 -14 51 -21 53 -44 2 -15 -3 -37 -11 -50 -8 -12 -17 -31 -21
-41 -3 -11 -3 6 -1 37 5 57 5 58 -27 71 -18 8 -49 24 -68 36 l-35 22 30 -7
c17 -4 53 -15 80 -24z m-197 -31 c-28 -16 -19 -118 17 -201 16 -38 -32 -17
-85 38 -45 46 -50 55 -30 49 14 -4 29 -11 35 -16 18 -17 22 -8 28 58 6 62 17
83 42 83 6 -1 2 -5 -7 -11z m-328 -237 c3 -3 -4 0 -15 6 -31 16 -135 112 -135
124 0 6 33 -20 73 -57 39 -38 74 -71 77 -73z m-8 91 c54 -76 53 -82 -1 -24
-28 30 -51 58 -51 63 0 20 21 4 52 -39z m98 -23 c74 -75 67 -80 -13 -10 -43
38 -76 80 -63 80 3 0 37 -32 76 -70z m111 20 c15 -28 25 -50 23 -50 -6 0 -64
82 -64 92 0 21 17 4 41 -42z m476 13 c-8 -15 -25 -37 -38 -48 l-22 -20 16 28
c43 70 49 78 54 74 2 -3 -2 -18 -10 -34z m163 29 c0 -13 -81 -90 -120 -115
-26 -16 -17 -3 35 50 68 69 85 82 85 65z m70 -3 c0 -6 -25 -36 -56 -67 -61
-62 -61 -55 -1 26 38 50 57 64 57 41z m43 -49 c-34 -32 -72 -64 -83 -70 -12
-6 12 20 52 59 40 39 78 70 83 70 6 0 -18 -26 -52 -59z m-832 33 c13 -16 12
-17 -3 -4 -10 7 -18 15 -18 17 0 8 8 3 21 -13z m609 -13 c-11 -16 -26 -33 -32
-36 -7 -4 1 9 16 29 34 44 46 50 16 7z m-146 -32 c-27 -29 -60 -69 -74 -90
-13 -20 -37 -44 -52 -53 -26 -15 -30 -15 -58 2 -17 9 -29 22 -26 28 2 5 -1 19
-7 30 -7 15 -2 13 21 -8 21 -20 36 -27 50 -23 26 9 69 65 87 114 7 20 14 29
14 20 1 -18 21 -26 21 -8 0 9 47 39 64 40 5 0 -13 -24 -40 -52z m86 -32 c0 -2
-8 -10 -17 -17 -16 -13 -17 -12 -4 4 13 16 21 21 21 13z"/>
<path d="M1164 1555 c-9 -22 22 -53 37 -38 15 15 7 47 -14 51 -9 2 -20 -4 -23
-13z"/>
<path d="M1267 1556 c-3 -8 1 -22 8 -33 13 -16 15 -17 30 -2 9 9 13 23 9 32
-8 21 -40 22 -47 3z"/>
<path d="M1377 1563 c-12 -12 -7 -41 7 -46 19 -7 40 18 32 38 -6 15 -28 20
-39 8z"/>
<path d="M1245 1300 c-14 -27 -25 -52 -25 -55 0 -3 25 -5 55 -5 30 0 55 2 55
5 0 10 -50 105 -55 105 -3 0 -16 -22 -30 -50z"/>
<path d="M940 1315 l0 -36 56 3 c60 3 83 20 71 52 -5 12 -20 16 -67 16 l-60 0
0 -35z"/>
<path d="M2050 1966 c0 -2 8 -10 18 -17 15 -13 16 -12 3 4 -13 16 -21 21 -21
13z"/>
<path d="M802 1920 c-29 -18 -72 -73 -72 -92 0 -5 13 -8 30 -8 25 0 33 7 52
43 46 85 45 90 -10 57z"/>
<path d="M1769 1881 c25 -49 35 -59 61 -63 27 -4 30 -2 24 16 -14 46 -76 106
-109 106 -3 0 8 -26 24 -59z"/>
<path d="M931 1900 c-18 -4 -45 -20 -60 -35 l-26 -27 45 7 c46 7 120 42 120
57 0 10 -33 9 -79 -2z"/>
<path d="M1580 1903 c0 -15 75 -51 120 -58 l45 -7 -23 25 c-29 31 -142 63
-142 40z"/>
<path d="M2129 1863 c-13 -16 -12 -17 4 -4 9 7 17 15 17 17 0 8 -8 3 -21 -13z"/>
<path d="M660 1798 c-17 -23 -30 -54 -30 -70 0 -32 0 -31 34 -18 25 9 46 58
46 108 0 33 -16 27 -50 -20z"/>
<path d="M1880 1824 c0 -40 27 -108 46 -115 30 -12 34 -10 34 11 0 28 -23 70
-54 99 -24 23 -26 23 -26 5z"/>
<path d="M751 1737 c-30 -15 -39 -37 -14 -32 10 2 48 9 85 16 37 6 65 15 62
20 -8 13 -105 11 -133 -4z"/>
<path d="M1715 1741 c-5 -8 37 -19 130 -34 l30 -5 -28 24 c-21 18 -40 24 -77
24 -27 0 -51 -4 -55 -9z"/>
<path d="M1986 1701 c-3 -5 -3 -36 0 -69 6 -53 9 -61 30 -65 21 -4 24 -1 24
30 0 18 -9 52 -20 73 -21 42 -25 46 -34 31z"/>
<path d="M740 1653 c-44 -7 -81 -25 -92 -46 -10 -19 -8 -20 48 -13 58 7 94 27
94 53 0 13 -4 14 -50 6z"/>
<path d="M1800 1652 c0 -5 10 -18 23 -29 23 -22 117 -43 117 -26 0 16 -33 41
-62 47 -16 3 -39 8 -53 11 -14 3 -25 2 -25 -3z"/>
<path d="M2208 1653 c7 -3 16 -2 19 1 4 3 -2 6 -13 5 -11 0 -14 -3 -6 -6z"/>
<path d="M2285 1643 c22 -3 47 -10 55 -16 13 -11 13 -10 1 6 -9 12 -26 16 -55
15 l-41 -1 40 -4z"/>
<path d="M1870 1545 c0 -21 35 -67 56 -75 60 -23 84 -2 42 37 -27 24 -98 51
-98 38z"/>
<path d="M2057 1528 c-3 -13 -9 -44 -12 -70 l-7 -48 31 0 c29 0 31 2 31 39 0
42 -17 101 -30 101 -4 0 -10 -10 -13 -22z"/>
<path d="M2392 1470 c0 -14 2 -19 5 -12 2 6 2 18 0 25 -3 6 -5 1 -5 -13z"/>
<path d="M2403 1400 c0 -25 2 -35 4 -22 2 12 2 32 0 45 -2 12 -4 2 -4 -23z"/>
<path d="M2085 1326 c-28 -64 -27 -86 4 -86 26 0 41 29 41 77 0 71 -16 74 -45
9z"/>
<path d="M1975 1210 c-21 -23 -20 -26 18 -35 27 -7 28 -6 25 20 -4 36 -19 41
-43 15z"/>
</g>
</svg>
